<mxfile host="app.diagrams.net" modified="2021-12-15T10:47:50.605Z" agent="5.0 (X11)" etag="ZWD0SIe83fXkwBuJNtNu" version="15.9.6" type="github" pages="2">
  <diagram id="FD5P43LTUvK0FRBp2iYE" name="tTCPRecv">
    <mxGraphModel dx="1422" dy="793" grid="1" gridSize="10" guides="1" tooltips="1" connect="1" arrows="1" fold="1" page="1" pageScale="1" pageWidth="827" pageHeight="1169" background="none" math="0" shadow="0">
      <root>
        <mxCell id="0" />
        <mxCell id="1" parent="0" />
        <mxCell id="dSsJfdRk3LbEZpbT1Tpg-6" style="edgeStyle=orthogonalEdgeStyle;curved=0;rounded=1;sketch=0;orthogonalLoop=1;jettySize=auto;html=1;entryX=0.5;entryY=0;entryDx=0;entryDy=0;fontColor=#143642;strokeColor=#A8201A;fillColor=#FAE5C7;" edge="1" parent="1" source="cBFfti2szmink36DWqsz-1" target="dSsJfdRk3LbEZpbT1Tpg-4">
          <mxGeometry relative="1" as="geometry" />
        </mxCell>
        <mxCell id="cBFfti2szmink36DWqsz-1" value="&lt;b&gt;TCPRecv&lt;/b&gt;" style="ellipse;whiteSpace=wrap;html=1;fillColor=#FAE5C7;strokeColor=#0F8B8D;fontColor=#143642;" vertex="1" parent="1">
          <mxGeometry x="354" y="40" width="120" height="60" as="geometry" />
        </mxCell>
        <mxCell id="CG6KJm1PyVAxM1OaOMc7-3" value="no" style="edgeStyle=orthogonalEdgeStyle;curved=0;rounded=1;sketch=0;orthogonalLoop=1;jettySize=auto;html=1;entryX=0;entryY=0.5;entryDx=0;entryDy=0;fontColor=#143642;strokeColor=#A8201A;fillColor=#FAE5C7;" edge="1" parent="1" source="cBFfti2szmink36DWqsz-6" target="fMEJDLGYgPY3dndvG8-7-2">
          <mxGeometry x="-0.8951" relative="1" as="geometry">
            <Array as="points">
              <mxPoint x="300" y="360" />
              <mxPoint x="300" y="500" />
            </Array>
            <mxPoint as="offset" />
          </mxGeometry>
        </mxCell>
        <mxCell id="MJrX0ChfIYZPYiiOyUN_-1" value="yes" style="edgeStyle=orthogonalEdgeStyle;curved=0;rounded=1;sketch=0;orthogonalLoop=1;jettySize=auto;html=1;entryX=0.5;entryY=0;entryDx=0;entryDy=0;fontColor=#143642;strokeColor=#A8201A;fillColor=#FAE5C7;" edge="1" parent="1" source="cBFfti2szmink36DWqsz-6" target="CG6KJm1PyVAxM1OaOMc7-4">
          <mxGeometry x="-0.4661" relative="1" as="geometry">
            <Array as="points">
              <mxPoint x="521" y="360" />
            </Array>
            <mxPoint as="offset" />
          </mxGeometry>
        </mxCell>
        <mxCell id="cBFfti2szmink36DWqsz-6" value="&lt;div&gt;Is &lt;i&gt;&lt;br&gt;&lt;/i&gt;&lt;/div&gt;&lt;div&gt;&lt;i&gt;msg&lt;/i&gt; empty?&lt;/div&gt;" style="rhombus;whiteSpace=wrap;html=1;rounded=0;sketch=0;fontColor=#143642;strokeColor=#0F8B8D;fillColor=#FAE5C7;" vertex="1" parent="1">
          <mxGeometry x="371.25" y="320" width="85.5" height="80" as="geometry" />
        </mxCell>
        <mxCell id="dSsJfdRk3LbEZpbT1Tpg-9" value="" style="edgeStyle=orthogonalEdgeStyle;curved=0;rounded=1;sketch=0;orthogonalLoop=1;jettySize=auto;html=1;fontColor=#143642;strokeColor=#A8201A;fillColor=#FAE5C7;" edge="1" parent="1" source="fMEJDLGYgPY3dndvG8-7-1" target="fMEJDLGYgPY3dndvG8-7-3">
          <mxGeometry relative="1" as="geometry" />
        </mxCell>
        <mxCell id="fMEJDLGYgPY3dndvG8-7-1" value="&lt;b&gt;Lock&lt;/b&gt; &lt;i&gt;mutTCPComm&lt;/i&gt;" style="rounded=0;whiteSpace=wrap;html=1;sketch=0;fontColor=#143642;strokeColor=#0F8B8D;fillColor=#FAE5C7;" vertex="1" parent="1">
          <mxGeometry x="353" y="160" width="121" height="40" as="geometry" />
        </mxCell>
        <mxCell id="dSsJfdRk3LbEZpbT1Tpg-13" value="" style="edgeStyle=orthogonalEdgeStyle;curved=0;rounded=1;sketch=0;orthogonalLoop=1;jettySize=auto;html=1;fontColor=#143642;strokeColor=#A8201A;fillColor=#FAE5C7;" edge="1" parent="1" source="fMEJDLGYgPY3dndvG8-7-2" target="dSsJfdRk3LbEZpbT1Tpg-12">
          <mxGeometry relative="1" as="geometry" />
        </mxCell>
        <mxCell id="fMEJDLGYgPY3dndvG8-7-2" value="" style="ellipse;whiteSpace=wrap;html=1;aspect=fixed;rounded=0;sketch=0;fontColor=#143642;strokeColor=#0F8B8D;fillColor=#FAE5C7;" vertex="1" parent="1">
          <mxGeometry x="404" y="490" width="20" height="20" as="geometry" />
        </mxCell>
        <mxCell id="dSsJfdRk3LbEZpbT1Tpg-10" value="" style="edgeStyle=orthogonalEdgeStyle;curved=0;rounded=1;sketch=0;orthogonalLoop=1;jettySize=auto;html=1;fontColor=#143642;strokeColor=#A8201A;fillColor=#FAE5C7;" edge="1" parent="1" source="fMEJDLGYgPY3dndvG8-7-3" target="cBFfti2szmink36DWqsz-6">
          <mxGeometry relative="1" as="geometry" />
        </mxCell>
        <mxCell id="fMEJDLGYgPY3dndvG8-7-3" value="msg &amp;lt;- &lt;b&gt;TCPRecv()&lt;/b&gt;" style="rounded=0;whiteSpace=wrap;html=1;sketch=0;fontColor=#143642;strokeColor=#0F8B8D;fillColor=#FAE5C7;" vertex="1" parent="1">
          <mxGeometry x="353" y="240" width="121" height="40" as="geometry" />
        </mxCell>
        <mxCell id="dSsJfdRk3LbEZpbT1Tpg-1" style="edgeStyle=orthogonalEdgeStyle;curved=0;rounded=1;sketch=0;orthogonalLoop=1;jettySize=auto;html=1;entryX=1;entryY=0.5;entryDx=0;entryDy=0;fontColor=#143642;strokeColor=#A8201A;fillColor=#FAE5C7;" edge="1" parent="1" source="CG6KJm1PyVAxM1OaOMc7-4" target="fMEJDLGYgPY3dndvG8-7-2">
          <mxGeometry relative="1" as="geometry">
            <Array as="points">
              <mxPoint x="521" y="500" />
            </Array>
          </mxGeometry>
        </mxCell>
        <mxCell id="CG6KJm1PyVAxM1OaOMc7-4" value="&lt;b&gt;Push &lt;/b&gt;msg to msgs_to_rs" style="rounded=0;whiteSpace=wrap;html=1;sketch=0;fontColor=#143642;strokeColor=#0F8B8D;fillColor=#FAE5C7;" vertex="1" parent="1">
          <mxGeometry x="460.75" y="420" width="121" height="40" as="geometry" />
        </mxCell>
        <mxCell id="dSsJfdRk3LbEZpbT1Tpg-11" value="" style="edgeStyle=orthogonalEdgeStyle;curved=0;rounded=1;sketch=0;orthogonalLoop=1;jettySize=auto;html=1;fontColor=#143642;strokeColor=#A8201A;fillColor=#FAE5C7;" edge="1" parent="1" source="dSsJfdRk3LbEZpbT1Tpg-3" target="dSsJfdRk3LbEZpbT1Tpg-4">
          <mxGeometry relative="1" as="geometry" />
        </mxCell>
        <mxCell id="dSsJfdRk3LbEZpbT1Tpg-3" value="&lt;b&gt;1&lt;/b&gt;" style="ellipse;whiteSpace=wrap;html=1;aspect=fixed;rounded=0;sketch=0;fontColor=#143642;strokeColor=#0F8B8D;fillColor=#FAE5C7;" vertex="1" parent="1">
          <mxGeometry x="474" y="120" width="20" height="20" as="geometry" />
        </mxCell>
        <mxCell id="dSsJfdRk3LbEZpbT1Tpg-8" style="edgeStyle=orthogonalEdgeStyle;curved=0;rounded=1;sketch=0;orthogonalLoop=1;jettySize=auto;html=1;exitX=0.5;exitY=1;exitDx=0;exitDy=0;entryX=0.5;entryY=0;entryDx=0;entryDy=0;fontColor=#143642;strokeColor=#A8201A;fillColor=#FAE5C7;" edge="1" parent="1" source="dSsJfdRk3LbEZpbT1Tpg-4" target="fMEJDLGYgPY3dndvG8-7-1">
          <mxGeometry relative="1" as="geometry" />
        </mxCell>
        <mxCell id="dSsJfdRk3LbEZpbT1Tpg-4" value="" style="ellipse;whiteSpace=wrap;html=1;aspect=fixed;rounded=0;sketch=0;fontColor=#143642;strokeColor=#0F8B8D;fillColor=#FAE5C7;" vertex="1" parent="1">
          <mxGeometry x="404" y="120" width="20" height="20" as="geometry" />
        </mxCell>
        <mxCell id="dSsJfdRk3LbEZpbT1Tpg-15" value="" style="edgeStyle=orthogonalEdgeStyle;curved=0;rounded=1;sketch=0;orthogonalLoop=1;jettySize=auto;html=1;fontColor=#143642;strokeColor=#A8201A;fillColor=#FAE5C7;" edge="1" parent="1" source="dSsJfdRk3LbEZpbT1Tpg-12" target="dSsJfdRk3LbEZpbT1Tpg-14">
          <mxGeometry relative="1" as="geometry" />
        </mxCell>
        <mxCell id="dSsJfdRk3LbEZpbT1Tpg-12" value="&lt;b&gt;Unlock&amp;nbsp; &lt;/b&gt;&lt;i&gt;mutTCPComm&lt;/i&gt;" style="rounded=0;whiteSpace=wrap;html=1;sketch=0;fontColor=#143642;strokeColor=#0F8B8D;fillColor=#FAE5C7;" vertex="1" parent="1">
          <mxGeometry x="353" y="540" width="121" height="40" as="geometry" />
        </mxCell>
        <mxCell id="dSsJfdRk3LbEZpbT1Tpg-14" value="&lt;b&gt;1&lt;/b&gt;" style="ellipse;whiteSpace=wrap;html=1;aspect=fixed;rounded=0;sketch=0;fontColor=#143642;strokeColor=#0F8B8D;fillColor=#FAE5C7;" vertex="1" parent="1">
          <mxGeometry x="404" y="610" width="20" height="20" as="geometry" />
        </mxCell>
      </root>
    </mxGraphModel>
  </diagram>
  <diagram name="tTCPSend" id="8riATjirvW6mjSZnXq3o">
    <mxGraphModel dx="1422" dy="793" grid="1" gridSize="10" guides="1" tooltips="1" connect="1" arrows="1" fold="1" page="1" pageScale="1" pageWidth="827" pageHeight="1169" math="0" shadow="0">
      <root>
        <mxCell id="38bq3hdBxUj4zwWWSXF3-0" />
        <mxCell id="38bq3hdBxUj4zwWWSXF3-1" parent="38bq3hdBxUj4zwWWSXF3-0" />
        <mxCell id="cmmPCz5GPAusbrKcSlvN-0" value="" style="edgeStyle=orthogonalEdgeStyle;curved=0;rounded=1;sketch=0;orthogonalLoop=1;jettySize=auto;html=1;fontColor=#143642;strokeColor=#A8201A;fillColor=#FAE5C7;" edge="1" parent="38bq3hdBxUj4zwWWSXF3-1" source="cmmPCz5GPAusbrKcSlvN-1" target="cmmPCz5GPAusbrKcSlvN-5">
          <mxGeometry relative="1" as="geometry" />
        </mxCell>
        <mxCell id="cmmPCz5GPAusbrKcSlvN-1" value="&lt;b&gt;TCPSend&lt;/b&gt;" style="ellipse;whiteSpace=wrap;html=1;fillColor=#FAE5C7;strokeColor=#0F8B8D;fontColor=#143642;" vertex="1" parent="38bq3hdBxUj4zwWWSXF3-1">
          <mxGeometry x="354" y="40" width="120" height="60" as="geometry" />
        </mxCell>
        <mxCell id="cmmPCz5GPAusbrKcSlvN-2" value="" style="edgeStyle=orthogonalEdgeStyle;curved=0;rounded=1;sketch=0;orthogonalLoop=1;jettySize=auto;html=1;fontColor=#143642;strokeColor=#A8201A;fillColor=#FAE5C7;" edge="1" parent="38bq3hdBxUj4zwWWSXF3-1" source="cmmPCz5GPAusbrKcSlvN-3" target="cmmPCz5GPAusbrKcSlvN-7">
          <mxGeometry relative="1" as="geometry" />
        </mxCell>
        <mxCell id="cmmPCz5GPAusbrKcSlvN-3" value="&lt;b&gt;Lock&lt;/b&gt; &lt;i&gt;mutTCPSend&lt;/i&gt;" style="rounded=0;whiteSpace=wrap;html=1;sketch=0;fontColor=#143642;strokeColor=#0F8B8D;fillColor=#FAE5C7;" vertex="1" parent="38bq3hdBxUj4zwWWSXF3-1">
          <mxGeometry x="354" y="180" width="121" height="40" as="geometry" />
        </mxCell>
        <mxCell id="cmmPCz5GPAusbrKcSlvN-4" value="" style="edgeStyle=orthogonalEdgeStyle;curved=0;rounded=1;sketch=0;orthogonalLoop=1;jettySize=auto;html=1;fontColor=#143642;strokeColor=#A8201A;fillColor=#FAE5C7;" edge="1" parent="38bq3hdBxUj4zwWWSXF3-1" source="cmmPCz5GPAusbrKcSlvN-5" target="cmmPCz5GPAusbrKcSlvN-3">
          <mxGeometry relative="1" as="geometry" />
        </mxCell>
        <mxCell id="cmmPCz5GPAusbrKcSlvN-5" value="" style="ellipse;whiteSpace=wrap;html=1;aspect=fixed;rounded=0;sketch=0;fontColor=#143642;strokeColor=#0F8B8D;fillColor=#FAE5C7;" vertex="1" parent="38bq3hdBxUj4zwWWSXF3-1">
          <mxGeometry x="404.5" y="130" width="20" height="20" as="geometry" />
        </mxCell>
        <mxCell id="cmmPCz5GPAusbrKcSlvN-6" value="no" style="edgeStyle=orthogonalEdgeStyle;curved=0;rounded=1;sketch=0;orthogonalLoop=1;jettySize=auto;html=1;fontColor=#143642;strokeColor=#A8201A;fillColor=#FAE5C7;entryX=0.5;entryY=0;entryDx=0;entryDy=0;" edge="1" parent="38bq3hdBxUj4zwWWSXF3-1" source="cmmPCz5GPAusbrKcSlvN-7" target="cmmPCz5GPAusbrKcSlvN-11">
          <mxGeometry x="-0.6702" relative="1" as="geometry">
            <Array as="points">
              <mxPoint x="519" y="290" />
            </Array>
            <mxPoint x="1" as="offset" />
          </mxGeometry>
        </mxCell>
        <mxCell id="2qXTBMH9zl-hqsFGs9-7-0" value="yes" style="edgeStyle=orthogonalEdgeStyle;curved=0;rounded=1;sketch=0;orthogonalLoop=1;jettySize=auto;html=1;entryX=0;entryY=0.5;entryDx=0;entryDy=0;fontColor=#143642;strokeColor=#A8201A;fillColor=#FAE5C7;" edge="1" parent="38bq3hdBxUj4zwWWSXF3-1" source="cmmPCz5GPAusbrKcSlvN-7" target="cmmPCz5GPAusbrKcSlvN-9">
          <mxGeometry x="-0.8623" relative="1" as="geometry">
            <Array as="points">
              <mxPoint x="300" y="290" />
              <mxPoint x="300" y="410" />
            </Array>
            <mxPoint as="offset" />
          </mxGeometry>
        </mxCell>
        <mxCell id="cmmPCz5GPAusbrKcSlvN-7" value="&lt;div&gt;Is &lt;i&gt;&lt;br&gt;&lt;/i&gt;&lt;/div&gt;&lt;div&gt;&lt;i&gt;msgs_to_rs&lt;/i&gt; empty?&lt;/div&gt;" style="rhombus;whiteSpace=wrap;html=1;rounded=0;sketch=0;fontColor=#143642;strokeColor=#0F8B8D;fillColor=#FAE5C7;" vertex="1" parent="38bq3hdBxUj4zwWWSXF3-1">
          <mxGeometry x="371" y="250" width="85.5" height="80" as="geometry" />
        </mxCell>
        <mxCell id="cmmPCz5GPAusbrKcSlvN-8" value="" style="edgeStyle=orthogonalEdgeStyle;curved=0;rounded=1;sketch=0;orthogonalLoop=1;jettySize=auto;html=1;fontColor=#143642;strokeColor=#A8201A;fillColor=#FAE5C7;" edge="1" parent="38bq3hdBxUj4zwWWSXF3-1" source="cmmPCz5GPAusbrKcSlvN-9" target="cmmPCz5GPAusbrKcSlvN-19">
          <mxGeometry relative="1" as="geometry" />
        </mxCell>
        <mxCell id="cmmPCz5GPAusbrKcSlvN-9" value="" style="ellipse;whiteSpace=wrap;html=1;aspect=fixed;rounded=0;sketch=0;fontColor=#143642;strokeColor=#0F8B8D;fillColor=#FAE5C7;" vertex="1" parent="38bq3hdBxUj4zwWWSXF3-1">
          <mxGeometry x="404" y="400" width="20" height="20" as="geometry" />
        </mxCell>
        <mxCell id="cmmPCz5GPAusbrKcSlvN-10" style="edgeStyle=orthogonalEdgeStyle;curved=0;rounded=1;sketch=0;orthogonalLoop=1;jettySize=auto;html=1;entryX=1;entryY=0.5;entryDx=0;entryDy=0;fontColor=#143642;strokeColor=#A8201A;fillColor=#FAE5C7;" edge="1" parent="38bq3hdBxUj4zwWWSXF3-1" source="cmmPCz5GPAusbrKcSlvN-11" target="cmmPCz5GPAusbrKcSlvN-9">
          <mxGeometry relative="1" as="geometry">
            <Array as="points">
              <mxPoint x="519" y="410" />
            </Array>
          </mxGeometry>
        </mxCell>
        <mxCell id="cmmPCz5GPAusbrKcSlvN-11" value="&lt;b&gt;Wait&lt;/b&gt; &lt;i&gt;condTCPSend&lt;/i&gt;" style="rounded=0;whiteSpace=wrap;html=1;sketch=0;fontColor=#143642;strokeColor=#0F8B8D;fillColor=#FAE5C7;" vertex="1" parent="38bq3hdBxUj4zwWWSXF3-1">
          <mxGeometry x="444" y="340" width="150" height="40" as="geometry" />
        </mxCell>
        <mxCell id="cmmPCz5GPAusbrKcSlvN-12" value="" style="edgeStyle=orthogonalEdgeStyle;curved=0;rounded=1;sketch=0;orthogonalLoop=1;jettySize=auto;html=1;fontColor=#143642;strokeColor=#A8201A;fillColor=#FAE5C7;" edge="1" parent="38bq3hdBxUj4zwWWSXF3-1" source="cmmPCz5GPAusbrKcSlvN-13" target="cmmPCz5GPAusbrKcSlvN-17">
          <mxGeometry relative="1" as="geometry" />
        </mxCell>
        <mxCell id="cmmPCz5GPAusbrKcSlvN-13" value="&lt;b&gt;Pop &lt;/b&gt;msg from msgs_to_rs&lt;i&gt;&lt;/i&gt;" style="rounded=0;whiteSpace=wrap;html=1;sketch=0;fontColor=#143642;strokeColor=#0F8B8D;fillColor=#FAE5C7;" vertex="1" parent="38bq3hdBxUj4zwWWSXF3-1">
          <mxGeometry x="339" y="590" width="150" height="40" as="geometry" />
        </mxCell>
        <mxCell id="cmmPCz5GPAusbrKcSlvN-14" value="" style="edgeStyle=orthogonalEdgeStyle;curved=0;rounded=1;sketch=0;orthogonalLoop=1;jettySize=auto;html=1;fontColor=#143642;strokeColor=#A8201A;fillColor=#FAE5C7;" edge="1" parent="38bq3hdBxUj4zwWWSXF3-1" source="cmmPCz5GPAusbrKcSlvN-15" target="cmmPCz5GPAusbrKcSlvN-13">
          <mxGeometry relative="1" as="geometry" />
        </mxCell>
        <mxCell id="cmmPCz5GPAusbrKcSlvN-15" value="&lt;b&gt;Lock&lt;/b&gt; &lt;i&gt;mutTCPComm&lt;/i&gt;" style="rounded=0;whiteSpace=wrap;html=1;sketch=0;fontColor=#143642;strokeColor=#0F8B8D;fillColor=#FAE5C7;" vertex="1" parent="38bq3hdBxUj4zwWWSXF3-1">
          <mxGeometry x="353" y="520" width="121" height="40" as="geometry" />
        </mxCell>
        <mxCell id="t28lT9NTZmWUEet6o_mt-1" value="" style="edgeStyle=orthogonalEdgeStyle;curved=0;rounded=1;sketch=0;orthogonalLoop=1;jettySize=auto;html=1;fontColor=#143642;strokeColor=#A8201A;fillColor=#FAE5C7;" edge="1" parent="38bq3hdBxUj4zwWWSXF3-1" source="cmmPCz5GPAusbrKcSlvN-17" target="t28lT9NTZmWUEet6o_mt-0">
          <mxGeometry relative="1" as="geometry" />
        </mxCell>
        <mxCell id="cmmPCz5GPAusbrKcSlvN-17" value="&lt;b&gt;TCPSend&lt;/b&gt;(msg)" style="rounded=0;whiteSpace=wrap;html=1;sketch=0;fontColor=#143642;strokeColor=#0F8B8D;fillColor=#FAE5C7;" vertex="1" parent="38bq3hdBxUj4zwWWSXF3-1">
          <mxGeometry x="358" y="660" width="111" height="40" as="geometry" />
        </mxCell>
        <mxCell id="cmmPCz5GPAusbrKcSlvN-18" value="" style="edgeStyle=orthogonalEdgeStyle;curved=0;rounded=1;sketch=0;orthogonalLoop=1;jettySize=auto;html=1;fontColor=#143642;strokeColor=#A8201A;fillColor=#FAE5C7;" edge="1" parent="38bq3hdBxUj4zwWWSXF3-1" source="cmmPCz5GPAusbrKcSlvN-19" target="cmmPCz5GPAusbrKcSlvN-15">
          <mxGeometry relative="1" as="geometry" />
        </mxCell>
        <mxCell id="cmmPCz5GPAusbrKcSlvN-19" value="&lt;b&gt;Unlock&lt;/b&gt; &lt;i&gt;mutTCPSend&lt;/i&gt;" style="rounded=0;whiteSpace=wrap;html=1;sketch=0;fontColor=#143642;strokeColor=#0F8B8D;fillColor=#FAE5C7;" vertex="1" parent="38bq3hdBxUj4zwWWSXF3-1">
          <mxGeometry x="353" y="450" width="121" height="40" as="geometry" />
        </mxCell>
        <mxCell id="cmmPCz5GPAusbrKcSlvN-20" value="&lt;b&gt;1&lt;/b&gt;" style="ellipse;whiteSpace=wrap;html=1;aspect=fixed;rounded=0;sketch=0;fontColor=#143642;strokeColor=#0F8B8D;fillColor=#FAE5C7;" vertex="1" parent="38bq3hdBxUj4zwWWSXF3-1">
          <mxGeometry x="404" y="800" width="20" height="20" as="geometry" />
        </mxCell>
        <mxCell id="cmmPCz5GPAusbrKcSlvN-21" value="" style="edgeStyle=orthogonalEdgeStyle;curved=0;rounded=1;sketch=0;orthogonalLoop=1;jettySize=auto;html=1;fontColor=#143642;strokeColor=#A8201A;fillColor=#FAE5C7;" edge="1" parent="38bq3hdBxUj4zwWWSXF3-1" source="cmmPCz5GPAusbrKcSlvN-22" target="cmmPCz5GPAusbrKcSlvN-5">
          <mxGeometry relative="1" as="geometry" />
        </mxCell>
        <mxCell id="cmmPCz5GPAusbrKcSlvN-22" value="&lt;b&gt;1&lt;/b&gt;" style="ellipse;whiteSpace=wrap;html=1;aspect=fixed;rounded=0;sketch=0;fontColor=#143642;strokeColor=#0F8B8D;fillColor=#FAE5C7;" vertex="1" parent="38bq3hdBxUj4zwWWSXF3-1">
          <mxGeometry x="475" y="130" width="20" height="20" as="geometry" />
        </mxCell>
        <mxCell id="t28lT9NTZmWUEet6o_mt-3" value="" style="edgeStyle=orthogonalEdgeStyle;curved=0;rounded=1;sketch=0;orthogonalLoop=1;jettySize=auto;html=1;fontColor=#143642;strokeColor=#A8201A;fillColor=#FAE5C7;" edge="1" parent="38bq3hdBxUj4zwWWSXF3-1" source="t28lT9NTZmWUEet6o_mt-0" target="cmmPCz5GPAusbrKcSlvN-20">
          <mxGeometry relative="1" as="geometry" />
        </mxCell>
        <mxCell id="t28lT9NTZmWUEet6o_mt-0" value="&lt;b&gt;Unlock&lt;/b&gt; &lt;i&gt;mutTCPComm&lt;/i&gt;" style="rounded=0;whiteSpace=wrap;html=1;sketch=0;fontColor=#143642;strokeColor=#0F8B8D;fillColor=#FAE5C7;" vertex="1" parent="38bq3hdBxUj4zwWWSXF3-1">
          <mxGeometry x="353" y="730" width="121" height="40" as="geometry" />
        </mxCell>
      </root>
    </mxGraphModel>
  </diagram>
</mxfile>
